HIERARCHY
ROOT hip
{
  OFFSET 0 0 0
  CHANNELS 6 Xposition Yposition Zposition Zrotation Yrotation Xrotation
  JOINT abdomen
  {
    OFFSET 0 20.6881 -0.73152
    CHANNELS 3 Zrotation Xrotation Yrotation
    JOINT chest
    {
      OFFSET 0 11.7043 -0.48768
      CHANNELS 3 Zrotation Xrotation Yrotation
      JOINT neck
      {
        OFFSET 0 22.1894 -2.19456
        CHANNELS 3 Zrotation Xrotation Yrotation
        JOINT head
        {
          OFFSET -0.24384 7.07133 1.2192
          CHANNELS 3 Zrotation Xrotation Yrotation
          JOINT leftEye
          {
            OFFSET 4.14528 8.04674 8.04672
            CHANNELS 3 Zrotation Xrotation Yrotation
            End Site
            {
              OFFSET 1 0 0
            }
          }
          JOINT rightEye
          {
            OFFSET -3.6576 8.04674 8.04672
            CHANNELS 3 Zrotation Xrotation Yrotation
            End Site
            {
              OFFSET 1 0 0
            }
          }
        }
      }
      JOINT rCollar
      {
        OFFSET -2.68224 19.2634 -4.8768
        CHANNELS 3 Zrotation Xrotation Yrotation
        JOINT rShldr
        {
          OFFSET -8.77824 -1.95073 1.46304
          CHANNELS 3 Zrotation Xrotation Yrotation
          JOINT rForeArm
          {
            OFFSET -28.1742 -1.7115 0.48768
            CHANNELS 3 Zrotation Xrotation Yrotation
            JOINT rHand
            {
              OFFSET -22.5879 0.773209 7.07136
              CHANNELS 3 Zrotation Xrotation Yrotation
              JOINT rThumb1
              {
                OFFSET -1.2192 -0.487915 3.41376
                CHANNELS 3 Zrotation Xrotation Yrotation
                JOINT rThumb2
                {
                  OFFSET -3.37035 -0.52449 3.41376
                  CHANNELS 3 Zrotation Xrotation Yrotation
                  End Site
                  {
                    OFFSET -1.78271 -1.18214 1.43049
                  }
                }
              }
              JOINT rIndex1
              {
                OFFSET -7.75947 0.938293 5.60832
                CHANNELS 3 Zrotation Xrotation Yrotation
                JOINT rIndex2
                {
                  OFFSET -2.54057 -0.884171 1.56538
                  CHANNELS 3 Zrotation Xrotation Yrotation
                  End Site
                  {
                    OFFSET -1.62519 -0.234802 1.16502
                  }
                }
              }
              JOINT rMid1
              {
                OFFSET -8.24714 1.18213 3.41376
                CHANNELS 3 Zrotation Xrotation Yrotation
                JOINT rMid2
                {
                  OFFSET -3.10165 -0.590103 1.0647
                  CHANNELS 3 Zrotation Xrotation Yrotation
                  End Site
                  {
                    OFFSET -2.48547 -0.328903 0.83742
                  }
                }
              }
              JOINT rRing1
              {
                OFFSET -8.82822 0.546677 1.51678
                CHANNELS 3 Zrotation Xrotation Yrotation
                JOINT rRing2
                {
                  OFFSET -2.60934 -0.819778 -0.0198488
                  CHANNELS 3 Zrotation Xrotation Yrotation
                  End Site
                  {
                    OFFSET -2.33842 -0.294052 0.168128
                  }
                }
              }
              JOINT rPinky1
              {
                OFFSET -8.27202 -0.0477905 -0.4584
                CHANNELS 3 Zrotation Xrotation Yrotation
                JOINT rPinky2
                {
                  OFFSET -1.82734 -0.647385 -0.700984
                  CHANNELS 3 Zrotation Xrotation Yrotation
                  End Site
                  {
                    OFFSET -1.69225 -0.51767 -0.607171
                  }
                }
              }
            }
          }
        }
      }
      JOINT lCollar
      {
        OFFSET 2.68224 19.2634 -4.8768
        CHANNELS 3 Zrotation Xrotation Yrotation
        JOINT lShldr
        {
          OFFSET 8.77824 -1.95073 1.46304
          CHANNELS 3 Zrotation Xrotation Yrotation
          JOINT lForeArm
          {
            OFFSET 28.1742 -1.7115 0.48768
            CHANNELS 3 Zrotation Xrotation Yrotation
            JOINT lHand
            {
              OFFSET 22.5879 0.773209 7.07136
              CHANNELS 3 Zrotation Xrotation Yrotation
              JOINT lThumb1
              {
                OFFSET 1.2192 -0.487915 3.41376
                CHANNELS 3 Zrotation Xrotation Yrotation
                JOINT lThumb2
                {
                  OFFSET 3.37035 -0.52449 3.41376
                  CHANNELS 3 Zrotation Xrotation Yrotation
                  End Site
                  {
                    OFFSET 1.78271 -1.18214 1.43049
                  }
                }
              }
              JOINT lIndex1
              {
                OFFSET 7.75947 0.938293 5.60832
                CHANNELS 3 Zrotation Xrotation Yrotation
                JOINT lIndex2
                {
                  OFFSET 2.54057 -0.884171 1.56538
                  CHANNELS 3 Zrotation Xrotation Yrotation
                  End Site
                  {
                    OFFSET 1.62519 -0.234802 1.16502
                  }
                }
              }
              JOINT lMid1
              {
                OFFSET 8.24714 1.18213 3.41376
                CHANNELS 3 Zrotation Xrotation Yrotation
                JOINT lMid2
                {
                  OFFSET 3.10165 -0.590103 1.0647
                  CHANNELS 3 Zrotation Xrotation Yrotation
                  End Site
                  {
                    OFFSET 2.48547 -0.328903 0.83742
                  }
                }
              }
              JOINT lRing1
              {
                OFFSET 8.82822 0.546677 1.51678
                CHANNELS 3 Zrotation Xrotation Yrotation
                JOINT lRing2
                {
                  OFFSET 2.60934 -0.819778 -0.0198488
                  CHANNELS 3 Zrotation Xrotation Yrotation
                  End Site
                  {
                    OFFSET 2.33842 -0.294052 0.168128
                  }
                }
              }
              JOINT lPinky1
              {
                OFFSET 8.27202 -0.0477905 -0.4584
                CHANNELS 3 Zrotation Xrotation Yrotation
                JOINT lPinky2
                {
                  OFFSET 1.82734 -0.647385 -0.700984
                  CHANNELS 3 Zrotation Xrotation Yrotation
                  End Site
                  {
                    OFFSET 1.69225 -0.51767 -0.607171
                  }
                }
              }
            }
          }
        }
      }
    }
  }
  JOINT rButtock
  {
    OFFSET -8.77824 4.35084 1.2192
    CHANNELS 3 Zrotation Xrotation Yrotation
    JOINT rThigh
    {
      OFFSET 0 -1.70687 -2.19456
      CHANNELS 3 Zrotation Xrotation Yrotation
      JOINT rShin
      {
        OFFSET 0 -36.8199 0.73152
        CHANNELS 3 Zrotation Xrotation Yrotation
        JOINT rFoot
        {
          OFFSET 0.73152 -45.1104 -5.12064
          CHANNELS 3 Zrotation Xrotation Yrotation
          End Site
          {
            OFFSET -1.1221 -3.69964 12.103
          }
        }
      }
    }
  }
  JOINT lButtock
  {
    OFFSET 8.77824 4.35084 1.2192
    CHANNELS 3 Zrotation Xrotation Yrotation
    JOINT lThigh
    {
      OFFSET 0 -1.70687 -2.19456
      CHANNELS 3 Zrotation Xrotation Yrotation
      JOINT lShin
      {
        OFFSET 0 -36.8199 0.73152
        CHANNELS 3 Zrotation Xrotation Yrotation
        JOINT lFoot
        {
          OFFSET -0.73152 -45.1104 -5.12064
          CHANNELS 3 Zrotation Xrotation Yrotation
          End Site
          {
            OFFSET 1.1221 -3.69964 12.103
          }
        }
      }
    }
  }
}
MOTION
Frames:	6
Frame Time:	0.00833333
-27.6801 72.2478 -84.9032 -331.227 79.7604 -685.951 -8.51543 21.404 2.86446 5.98346 -6.51945 0.838647 -13.5953 2.9542 -8.49675 22.1783 -22.6532 -9.47254 -0.0 0.0 0.0 -0.0 0.0 0.0 -1.21114e-13 -9.59563e-13 1.64215e-13 52.337 15.5233 28.9568 -24.6049 -20.2722 51.5874 -0.805103 -24.6194 -3.69213 -9.30368e-10 -1.88423e-09 1.44674e-09 -1.63793e-09 -3.25177e-09 2.48594e-09 -9.30367e-10 -1.88423e-09 1.44674e-09 7.73091 5.47488 0.417314 -9.30369e-10 -1.88423e-09 1.44674e-09 2.90554 0.965183 0.102902 -9.30362e-10 -1.88423e-09 1.44674e-09 10.2786 0.731801 0.0259123 -9.30364e-10 -1.88423e-09 1.44674e-09 2.22167 -0.733487 -0.20892 -1.2111e-13 -9.59566e-13 1.63997e-13 -59.5901 46.8078 -28.7376 18.7684 -11.536 -35.7722 0.0456613 6.00201 -0.84682 8.91184e-10 1.90227e-09 -3.94478e-10 1.54135e-09 3.2914e-09 -6.89843e-10 8.91181e-10 1.90227e-09 -3.94472e-10 -7.73091 5.47488 -0.417314 8.91184e-10 1.90226e-09 -3.94482e-10 -2.90554 0.965183 -0.102902 8.91181e-10 1.90227e-09 -3.94482e-10 -10.2786 0.731801 -0.0259123 8.91191e-10 1.90227e-09 -3.94493e-10 -2.22167 -0.733487 0.20892 -2.03217e-16 0.0 -3.88251e-19 -40.5854 -49.6129 -25.9531 -3.56827 76.7865 4.06731 -8.15723 -15.1308 -16.9918 2.03217e-16 0.0 3.88251e-19 16.4878 -27.7851 13.0077 0.805833 55.2222 -1.23898 0.568759 -28.2772 -0.0383905
-27.754 72.3083 -84.5227 -331.951 78.6822 -686.607 -8.1765 21.3112 2.3611 5.9281 -6.65475 0.715349 -13.7383 2.53721 -8.34707 22.2861 -22.1673 -9.10911 -0.0 0.0 0.0 -0.0 0.0 0.0 -1.55431e-13 -1.07223e-14 1.503e-13 52.9833 17.0649 27.3627 -24.5254 -20.1122 51.3216 -0.843003 -25.1415 -3.78162 -9.33447e-10 -2.99059e-09 2.59355e-09 -1.66715e-09 -5.16796e-09 4.46835e-09 -9.33444e-10 -2.99059e-09 2.59355e-09 7.73091 5.47488 0.417314 -9.33447e-10 -2.99059e-09 2.59355e-09 2.90554 0.965183 0.102902 -9.33441e-10 -2.99059e-09 2.59355e-09 10.2786 0.731801 0.0259123 -9.33443e-10 -2.99059e-09 2.59355e-09 2.22167 -0.733487 -0.20892 -1.55363e-13 -1.07289e-14 1.50155e-13 -58.0413 47.3125 -30.7942 18.7952 -11.5666 -35.8342 0.0463775 6.0931 -0.85968 1.32815e-09 2.85782e-09 -4.32265e-10 2.29778e-09 4.94448e-09 -7.57399e-10 1.32815e-09 2.85782e-09 -4.32259e-10 -7.73091 5.47488 -0.417314 1.32815e-09 2.85782e-09 -4.32267e-10 -2.90554 0.965183 -0.102902 1.32815e-09 2.85782e-09 -4.32267e-10 -10.2786 0.731801 -0.0259123 1.32816e-09 2.85782e-09 -4.32278e-10 -2.22167 -0.733487 0.20892 -2.03217e-16 0.0 -3.88251e-19 -40.607 -49.951 -26.3453 -3.94297 77.7548 4.41495 -7.75029 -13.9088 -16.6852 2.03217e-16 0.0 3.88251e-19 17.0408 -27.1335 13.3232 0.784048 54.848 -1.23819 0.826342 -28.0571 0.420077
-27.7585 72.3477 -84.1402 -332.97 77.5729 -687.636 -7.95326 21.2044 1.85401 5.89267 -6.71777 0.582444 -13.8167 2.03636 -8.1857 22.22 -21.6927 -8.7509 -0.0 0.0 0.0 -0.0 0.0 0.0 -1.73396e-13 6.50031e-13 1.20911e-13 53.6841 18.4788 25.8776 -24.4309 -19.9247 51.0027 -0.86738 -25.4642 -3.83748 -8.05539e-10 -3.24879e-09 2.95889e-09 -1.45385e-09 -5.61729e-09 5.10209e-09 -8.05534e-10 -3.24879e-09 2.95888e-09 7.73091 5.47488 0.417314 -8.05538e-10 -3.24879e-09 2.95889e-09 2.90554 0.965183 0.102902 -8.05534e-10 -3.24879e-09 2.95888e-09 10.2786 0.731801 0.0259123 -8.05535e-10 -3.24879e-09 2.95889e-09 2.22167 -0.733487 -0.20892 -1.73296e-13 6.50022e-13 1.20811e-13 -56.5671 47.6781 -32.7108 18.8734 -11.6576 -36.0104 0.04472 6.02437 -0.849835 1.54573e-09 3.12159e-09 -3.3038e-10 2.67463e-09 5.40085e-09 -5.81925e-10 1.54572e-09 3.12159e-09 -3.30374e-10 -7.73091 5.47488 -0.417314 1.54573e-09 3.12159e-09 -3.3038e-10 -2.90554 0.965183 -0.102902 1.54572e-09 3.12158e-09 -3.30382e-10 -10.2786 0.731801 -0.0259123 1.54574e-09 3.12159e-09 -3.30393e-10 -2.22167 -0.733487 0.20892 -2.03217e-16 0.0 -3.88251e-19 -40.6269 -50.2057 -26.6657 -4.35766 78.6705 4.80252 -7.20394 -12.7417 -16.0171 2.03217e-16 0.0 3.88251e-19 17.4675 -26.3636 13.5831 0.756368 54.323 -1.23181 1.09021 -27.8407 0.897759
-27.7511 72.3808 -83.6724 -335.542 76.8201 -690.238 -7.84368 21.1163 1.33332 5.86498 -6.68333 0.434668 -13.7976 1.42753 -8.01741 21.889 -21.2543 -8.42242 -0.0 0.0 0.0 -0.0 0.0 0.0 -1.60252e-13 9.10591e-13 4.39664e-14 54.455 19.7402 24.5142 -24.3175 -19.7026 50.627 -0.87074 -25.5063 -3.84487 -3.70541e-10 -1.92023e-09 1.94495e-09 -6.81377e-10 -3.32394e-09 3.35668e-09 -3.70534e-10 -1.92024e-09 1.94494e-09 7.73091 5.47488 0.417314 -3.7054e-10 -1.92024e-09 1.94495e-09 2.90554 0.965183 0.102902 -3.70536e-10 -1.92024e-09 1.94495e-09 10.2786 0.731801 0.0259123 -3.70537e-10 -1.92024e-09 1.94495e-09 2.22167 -0.733487 -0.20892 -1.60163e-13 9.10579e-13 4.38767e-14 -55.1337 47.9471 -34.5135 19.0112 -11.8176 -36.3282 0.0401672 5.72992 -0.80798 1.38968e-09 2.03937e-09 1.21939e-10 2.40531e-09 3.52885e-09 2.02379e-10 1.38968e-09 2.03937e-09 1.21946e-10 -7.73091 5.47488 -0.417314 1.38968e-09 2.03937e-09 1.21939e-10 -2.90554 0.965183 -0.102902 1.38968e-09 2.03937e-09 1.21937e-10 -10.2786 0.731801 -0.0259123 1.38969e-09 2.03937e-09 1.21926e-10 -2.22167 -0.733487 0.20892 -2.03217e-16 0.0 -3.88251e-19 -40.6407 -50.3473 -26.8829 -4.8409 79.5727 5.25799 -6.47037 -11.6621 -14.7974 2.03217e-16 0.0 3.88251e-19 17.7666 -25.4285 13.7814 0.721997 53.6269 -1.21961 1.34932 -27.6707 1.37468
-27.7614 72.4693 -83.0767 -338.66 76.2633 -693.288 -7.69487 21.0589 0.810499 5.80035 -6.59112 0.283209 -13.6986 0.726417 -7.84622 21.3414 -20.8055 -8.12864 -0.0 0.0 0.0 -0.0 0.0 0.0 -1.25478e-13 9.80383e-13 -6.86428e-14 55.2394 20.8721 23.2042 -24.1863 -19.4489 50.2043 -0.862512 -25.3962 -3.82582 2.82348e-10 4.49775e-10 4.24442e-11 4.86003e-10 7.6919e-10 7.8916e-11 2.82357e-10 4.49778e-10 4.24299e-11 7.73091 5.47488 0.417314 2.82349e-10 4.4977e-10 4.24432e-11 2.90554 0.965183 0.102902 2.82353e-10 4.49771e-10 4.24436e-11 10.2786 0.731801 0.0259123 2.82351e-10 4.49772e-10 4.24528e-11 2.22167 -0.733487 -0.20892 -1.2543e-13 9.80367e-13 -6.87453e-14 -53.7689 48.1331 -36.1876 19.1881 -12.0235 -36.7448 0.0346884 5.3307 -0.751337 9.8361e-10 7.0604e-11 8.0223e-10 1.70349e-09 1.23255e-10 1.38287e-09 9.83605e-10 7.06035e-11 8.02239e-10 -7.73091 5.47488 -0.417314 9.83611e-10 7.06049e-11 8.0223e-10 -2.90554 0.965183 -0.102902 9.83603e-10 7.06044e-11 8.02228e-10 -10.2786 0.731801 -0.0259123 9.83617e-10 7.06069e-11 8.02217e-10 -2.22167 -0.733487 0.20892 -2.03217e-16 0.0 -3.88251e-19 -40.4775 -50.4004 -26.944 -5.41053 80.4635 5.79875 -5.6311 -10.6106 -13.1821 2.03217e-16 0.0 3.88251e-19 18.0827 -24.3546 13.948 0.683547 52.8155 -1.20479 1.59986 -27.5399 1.84381
-27.6827 72.6176 -82.4924 -339.823 75.3441 -694.647 -7.62715 20.9496 0.299572 5.76158 -6.46799 0.13173 -13.5764 -0.0250724 -7.65975 20.7469 -20.3259 -7.8099 -0.0 0.0 0.0 -0.0 0.0 0.0 -9.51682e-14 9.54574e-13 -1.53652e-13 55.9804 21.8843 21.9649 -24.0396 -19.1705 49.7382 -0.849412 -25.22 -3.7954 8.23794e-10 2.60837e-09 -1.7716e-09 1.45902e-09 4.49868e-09 -3.04775e-09 8.23805e-10 2.60838e-09 -1.77162e-09 7.73091 5.47488 0.417314 8.23795e-10 2.60837e-09 -1.7716e-09 2.90554 0.965183 0.102902 8.23799e-10 2.60837e-09 -1.7716e-09 10.2786 0.731801 0.0259123 8.23796e-10 2.60837e-09 -1.77159e-09 2.22167 -0.733487 -0.20892 -9.51747e-14 9.54556e-13 -1.53778e-13 -52.6087 48.1762 -37.6253 19.3943 -12.2674 -37.2332 0.0292364 4.88427 -0.688107 5.81842e-10 -1.65737e-09 1.32812e-09 1.0088e-09 -2.86573e-09 2.29598e-09 5.81837e-10 -1.65737e-09 1.32813e-09 -7.73091 5.47488 -0.417314 5.81842e-10 -1.65737e-09 1.32812e-09 -2.90554 0.965183 -0.102902 5.81833e-10 -1.65737e-09 1.32812e-09 -10.2786 0.731801 -0.0259123 5.81847e-10 -1.65737e-09 1.32811e-09 -2.22167 -0.733487 0.20892 -2.03217e-16 0.0 -3.88251e-19 -40.2636 -50.4169 -26.9483 -6.01391 81.2531 6.37384 -4.81236 -9.52702 -11.4913 2.03217e-16 0.0 3.88251e-19 18.314 -23.2292 14.0815 0.642312 51.8925 -1.18702 1.86948 -27.3568 2.35539
